<?xml version="1.0" encoding="UTF-8"?><svg id="a" xmlns="http://www.w3.org/2000/svg" viewBox="0 0 30.22 38.09"><defs><style>.b{fill:#fefefe;}.c{fill:#7c94a3;}.d{fill:#173152;}.e{fill:#2a1f51;}</style></defs><path class="c" d="M2,0C.9,0,0,.9,0,2V36.09c0,1.1,.9,2,2,2H28.22c1.1,0,2-.9,2-2V2c0-1.1-.9-2-2-2H2ZM13.03,13.18c-1.91,0-1.9-2.67,0-2.67s1.9,2.67,0,2.67Z"/><path class="b" d="M6.21,8.77s0-.01,0-.01c.02,0,.03,0,.05,0,5.9,0,11.8,0,17.69,0,.05,0,.06,.01,.06,.06,0,7.33,0,14.66,0,21.99,0,.05-.01,.06-.06,.06-5.92,0-11.83,0-17.75,0,0-7.29,0-14.57,0-21.86h.08c5.85,0,11.7,0,17.56,0,.05,0,.12,.02,.15-.01,.03-.03,0-.1,.01-.16,0-.05-.01-.07-.07-.07-5.91,0-11.82,0-17.73,0Zm16.56,12.81c0-2.19,0-4.37,0-6.56,0-.17-.02-.35-.08-.51-.06-.18-.12-.35-.22-.51-.09-.13-.18-.25-.29-.35-.15-.14-.32-.24-.51-.32-.22-.1-.44-.15-.67-.18-.25-.03-.51-.01-.76-.01-.51,0-1.02,0-1.52,0-.05,0-.07-.01-.08-.06-.03-.08-.06-.15-.1-.22-.07-.12-.12-.25-.2-.36-.12-.18-.25-.36-.4-.52-.18-.2-.38-.37-.59-.52-.19-.14-.39-.25-.6-.35-.39-.18-.79-.28-1.21-.34-.64-.09-1.25,0-1.86,.2-.47,.16-.89,.4-1.26,.72-.15,.13-.28,.27-.41,.42-.15,.17-.27,.36-.39,.56-.08,.13-.14,.28-.2,.42-.02,.04-.04,.06-.09,.06-.62,0-1.25,0-1.87,0-.33,0-.65,.03-.96,.14-.24,.09-.46,.21-.64,.38-.16,.15-.28,.32-.38,.52-.13,.26-.19,.55-.19,.84,0,4.24,0,8.48,0,12.72,0,.2,0,.4,.02,.61,.05,.37,.17,.71,.41,1,.17,.21,.37,.35,.61,.47,.31,.15,.65,.22,.99,.22,3.76,0,7.53,0,11.29,0,.18,0,.36,0,.54-.03,.37-.06,.71-.21,1-.44,.17-.13,.28-.31,.39-.48,.09-.15,.14-.33,.19-.5,.04-.13,.05-.27,.05-.41,0-2.19,0-4.39,0-6.58Z"/><path class="e" d="M6.21,8.77c5.91,0,11.82,0,17.73,0,.05,0,.07,.01,.07,.07,0,.05,.02,.12-.01,.16-.03,.03-.1,.01-.15,.01-5.85,0-11.7,0-17.56,0h-.08v-.23Z"/><path class="d" d="M22.77,21.59c0,2.19,0,4.39,0,6.58,0,.14,0,.28-.05,.41-.05,.17-.1,.35-.19,.5-.11,.18-.23,.35-.39,.48-.3,.23-.63,.38-1,.44-.18,.03-.36,.03-.54,.03-3.76,0-7.53,0-11.29,0-.35,0-.68-.07-.99-.22-.23-.11-.44-.26-.61-.47-.24-.3-.36-.63-.41-1-.03-.2-.02-.4-.02-.61,0-4.24,0-8.48,0-12.72,0-.29,.06-.57,.19-.84,.1-.19,.22-.37,.38-.52,.19-.17,.41-.29,.64-.38,.31-.11,.63-.15,.96-.14,.62,0,1.25,0,1.87,0,.05,0,.07-.01,.09-.06,.06-.14,.12-.29,.2-.42,.11-.2,.24-.39,.39-.56,.13-.15,.26-.29,.41-.42,.37-.32,.79-.56,1.26-.72,.61-.2,1.22-.29,1.86-.2,.42,.06,.83,.16,1.21,.34,.21,.1,.42,.21,.6,.35,.21,.16,.41,.33,.59,.52,.15,.16,.28,.34,.4,.52,.08,.12,.13,.24,.2,.36,.04,.07,.07,.14,.1,.22,.01,.04,.04,.06,.08,.06,.51,0,1.02,0,1.52,0,.25,0,.51-.01,.76,.01,.23,.03,.46,.08,.67,.18,.18,.08,.36,.18,.51,.32,.11,.1,.21,.22,.29,.35,.11,.16,.16,.33,.22,.51,.06,.17,.08,.34,.08,.51,0,2.19,0,4.37,0,6.56Zm-7.75-2.41c1.03,0,2.07,0,3.1,0,.08,0,.17,0,.25-.01,.17-.03,.31-.09,.41-.23,.16-.22,.16-.62-.11-.82-.14-.11-.31-.14-.48-.14-2.09,0-4.19,0-6.28,0-.07,0-.15,0-.22,.01-.25,.03-.47,.18-.52,.44-.06,.25,0,.47,.21,.63,.13,.1,.29,.13,.45,.13,1.06,0,2.13,0,3.19,0Zm0-3.62c.21,0,.39-.03,.57-.1,.3-.12,.52-.33,.64-.62,.14-.36,.14-.72-.06-1.07-.16-.28-.39-.46-.69-.55-.44-.12-.86-.1-1.25,.17-.22,.15-.37,.35-.44,.6-.09,.29-.08,.58,.05,.86,.09,.2,.22,.36,.4,.48,.24,.17,.52,.23,.78,.23Z"/><path class="b" d="M15.02,19.18c-1.06,0-2.13,0-3.19,0-.16,0-.32-.03-.45-.13-.21-.16-.27-.38-.21-.63,.06-.25,.27-.4,.52-.44,.07,0,.14-.01,.22-.01,2.09,0,4.19,0,6.28,0,.17,0,.33,.03,.48,.14,.26,.2,.27,.6,.11,.82-.1,.14-.25,.2-.41,.23-.08,.01-.17,.01-.25,.01-1.03,0-2.07,0-3.1,0Z"/><path class="b" d="M15.02,15.56c-.27,0-.54-.06-.78-.23-.18-.13-.31-.28-.4-.48-.13-.28-.13-.57-.05-.86,.07-.25,.22-.45,.44-.6,.39-.27,.81-.29,1.25-.17,.3,.09,.53,.27,.69,.55,.2,.35,.2,.71,.06,1.07-.12,.29-.34,.5-.64,.62-.18,.07-.36,.1-.57,.1Z"/></svg>